<svg xmlns="http://www.w3.org/2000/svg" width="500" height="500" viewBox="0 0 500 500"><path fill="#FFFFFF" d="M0 0 h500 v500 h-500 v-500Z"/><text transform="translate(-88.88500000000002, 19)" fill="#444444" font-family="DejaVu Sans, sans-serif" font-weight="bold" font-size="16" x="250.0" y="12.5">Prefill tok/s vs context</text><defs><clipPath id="plot-clip"><rect x="0" y="0" width="427.11" height="414.5"/></clipPath></defs><g><path stroke="#cccccc" stroke-dasharray="None" d="M0 0.0 h427.11 M0 82.9 h427.11 M0 165.8 h427.11 M0 248.7 h427.11 M0 331.6 h427.11 M0 414.5 h427.11" transform="translate(47.89, 53.5)"/><g font-size="12" font-family="DejaVu Sans, sans-serif" fill="#000000" transform="translate(41.89, 53.5)"><text x="0" y="0.0" transform="translate(-22.89, 3.5)">750</text><text x="0" y="82.9" transform="translate(-22.89, 3.5)">600</text><text x="0" y="165.8" transform="translate(-22.89, 3.5)">450</text><text x="0" y="248.7" transform="translate(-22.89, 3.5)">300</text><text x="0" y="331.6" transform="translate(-22.89, 3.5)">150</text><text x="0" y="414.5" transform="translate(-7.63, 3.5)">0</text></g></g><g><path stroke="#cccccc" stroke-dasharray="None" d="M0.0 0 v414.5 M71.185 0 v414.5 M142.37 0 v414.5 M213.555 0 v414.5 M284.74 0 v414.5 M355.925 0 v414.5 M427.11 0 v414.5" transform="translate(47.89, 53.5)"/><g font-size="12" font-family="DejaVu Sans, sans-serif" fill="#000000" transform="translate(47.89, 71.5)"><text x="0.0" y="414.5" transform="translate(-7.29, 0)">1k</text><text x="71.185" y="414.5" transform="translate(-7.29, 0)">2k</text><text x="142.37" y="414.5" transform="translate(-7.29, 0)">4k</text><text x="213.555" y="414.5" transform="translate(-7.29, 0)">8k</text><text x="284.74" y="414.5" transform="translate(-11.105, 0)">16k</text><text x="355.925" y="414.5" transform="translate(-11.105, 0)">32k</text><text x="427.11" y="414.5" transform="translate(-11.105, 0)">64k</text></g></g><g opacity="0.8" transform="translate(-25.0, -32) rotate(180, 250.0, 250.0) scale(-1, 1) translate(-427.11, 0)"><g fill="white" stroke="#41b6a6" stroke-width="2"><path d="M0.0 366.0 L71.2 387.4 L142.4 390.0 L213.6 376.0 L284.7 346.1 L355.9 290.8 L427.1 213.3" fill="none"/></g></g><g><rect transform="translate(-5.75025, -1.275)" x="388.57975" y="58.775" width="88.17049999999999" height="19.549999999999997" fill="#f5f5f5" fill-opacity="0.85" stroke="none"/><g><rect y="60.775" x="388.57975" width="13" height="13" fill="#41b6a6"/><text y="70.525" x="403.57975" font-size="13" font-family="DejaVu Sans, sans-serif" fill="#444444">prefill tok/s</text></g></g><path d="M47.89 53.5 v414.5 M47.89 468.0 h427.11" stroke="#999" stroke-width="1.5" fill="none"/></svg>