<svg xmlns="http://www.w3.org/2000/svg" width="500" height="500" viewBox="0 0 500 500"><path fill="#FFFFFF" d="M0 0 h500 v500 h-500 v-500Z"/><text transform="translate(-215.45999999999992, 19)" fill="#444444" font-family="DejaVu Sans, sans-serif" font-weight="bold" font-size="16" x="250.0" y="12.5">The throughput lie: marketing number vs real decode</text><defs><clipPath id="plot-clip"><rect x="0" y="0" width="427.11" height="389.5"/></clipPath></defs><g><path stroke="#cccccc" stroke-dasharray="None" d="M0 0.0 h427.11 M0 77.9 h427.11 M0 155.8 h427.11 M0 233.7 h427.11 M0 311.6 h427.11 M0 389.5 h427.11" transform="translate(47.89, 78.5)"/><g font-size="12" font-family="DejaVu Sans, sans-serif" fill="#000000" transform="translate(41.89, 78.5)"><text x="0" y="0.0" transform="translate(-22.89, 3.5)">600</text><text x="0" y="77.9" transform="translate(-22.89, 3.5)">480</text><text x="0" y="155.8" transform="translate(-22.89, 3.5)">360</text><text x="0" y="233.7" transform="translate(-22.89, 3.5)">240</text><text x="0" y="311.6" transform="translate(-22.89, 3.5)">120</text><text x="0" y="389.5" transform="translate(-7.63, 3.5)">0</text></g></g><g><path stroke="#cccccc" stroke-dasharray="None" d="M0.0 0 v389.5 M61.01571428571428 0 v389.5 M122.03142857142856 0 v389.5 M183.04714285714286 0 v389.5 M244.06285714285713 0 v389.5 M305.0785714285714 0 v389.5 M366.0942857142857 0 v389.5 M427.11 0 v389.5" transform="translate(47.89, 78.5)"/><g font-size="12" font-family="DejaVu Sans, sans-serif" fill="#000000" transform="translate(47.89, 96.5)"><text x="0.0" y="389.5" transform="translate(-1.905, 0)"> </text><text x="61.01571428571428" y="389.5" transform="translate(-7.29, 0)">1k</text><text x="122.03142857142856" y="389.5" transform="translate(-7.29, 0)">2k</text><text x="183.04714285714286" y="389.5" transform="translate(-7.29, 0)">4k</text><text x="244.06285714285713" y="389.5" transform="translate(-7.29, 0)">8k</text><text x="305.0785714285714" y="389.5" transform="translate(-11.105, 0)">16k</text><text x="366.0942857142857" y="389.5" transform="translate(-11.105, 0)">32k</text><text x="427.11" y="389.5" transform="translate(-1.905, 0)"> </text></g></g><g opacity="0.8" transform="translate(-25.0, -32) rotate(180, 250.0, 250.0) scale(-1, 1) translate(-427.11, 0) translate(-22.47947368421053, 0)"><path d="M49.8 0 h22.5 v231.8 h-22.5 v-231.8Z M117.2 0 h22.5 v305.8 h-22.5 v-305.8Z M184.7 0 h22.5 v362.9 h-22.5 v-362.9Z M252.1 0 h22.5 v388.2 h-22.5 v-388.2Z M319.5 0 h22.5 v380.4 h-22.5 v-380.4Z M387.0 0 h22.5 v329.8 h-22.5 v-329.8Z" fill="#d9594c"/><path d="M72.3 0 h22.5 v35.8 h-22.5 v-35.8Z M139.7 0 h22.5 v35.2 h-22.5 v-35.2Z M207.1 0 h22.5 v34.1 h-22.5 v-34.1Z M274.6 0 h22.5 v32.0 h-22.5 v-32.0Z M342.0 0 h22.5 v29.4 h-22.5 v-29.4Z M409.4 0 h22.5 v24.5 h-22.5 v-24.5Z" fill="#41b6a6"/></g><g><rect x="116.795" y="56.5" width="11.0" height="11.0" fill="#d9594c"/><text x="133.79500000000002" y="65.85" fill="#444444" font-size="11" font-family="DejaVu Sans, sans-serif" text-anchor="start">marketing 'throughput'</text><rect x="277.485" y="56.5" width="11.0" height="11.0" fill="#41b6a6"/><text x="294.485" y="65.85" fill="#444444" font-size="11" font-family="DejaVu Sans, sans-serif" text-anchor="start">honest decode tok/s</text></g><path d="M47.89 78.5 v389.5 M47.89 468.0 h427.11" stroke="#999" stroke-width="1.5" fill="none"/></svg>