<svg xmlns="http://www.w3.org/2000/svg" width="760" height="560" viewBox="0 0 760 560"><path fill="#FFFFFF" d="M0 0 h760 v560 h-760 v-560Z"/><text transform="translate(-96.73500000000001, 19)" fill="#444444" font-family="DejaVu Sans, sans-serif" font-weight="bold" font-size="16" x="380.0" y="14.0">Decode tok/s vs context</text><defs><clipPath id="plot-clip"><rect x="0" y="0" width="668.74" height="471.5"/></clipPath></defs><g><path stroke="#cccccc" stroke-dasharray="None" d="M0 404.936763334149 h668.74 M0 249.09656822508302 h668.74 M0 48.183613150986695 h668.74" transform="translate(53.26, 56.5)"/><g font-size="12" font-family="DejaVu Sans, sans-serif" fill="#000000" transform="translate(47.26, 56.5)"><text x="0" y="404.936763334149" transform="translate(-15.26, 3.5)">30</text><text x="0" y="249.09656822508302" transform="translate(-15.26, 3.5)">40</text><text x="0" y="48.183613150986695" transform="translate(-15.26, 3.5)">50</text></g></g><g><path stroke="#cccccc" stroke-dasharray="None" d="M0.0 0 v471.5 M111.45666666666666 0 v471.5 M222.91333333333333 0 v471.5 M334.37 0 v471.5 M445.82666666666665 0 v471.5 M557.2833333333334 0 v471.5 M668.74 0 v471.5" transform="translate(53.26, 56.5)"/><g font-size="12" font-family="DejaVu Sans, sans-serif" fill="#000000" transform="translate(53.26, 74.5)"><text x="0.0" y="471.5" transform="translate(-7.29, 0)">1k</text><text x="111.45666666666666" y="471.5" transform="translate(-7.29, 0)">2k</text><text x="222.91333333333333" y="471.5" transform="translate(-7.29, 0)">4k</text><text x="334.37" y="471.5" transform="translate(-7.29, 0)">8k</text><text x="445.82666666666665" y="471.5" transform="translate(-11.105, 0)">16k</text><text x="557.2833333333334" y="471.5" transform="translate(-11.105, 0)">32k</text><text x="668.74" y="471.5" transform="translate(-11.105, 0)">64k</text></g></g><g opacity="0.8" transform="translate(-38.0, -32) rotate(180, 380.0, 280.0) scale(-1, 1) translate(-668.74, 0)"><g fill="white" stroke="#5fab9e" stroke-width="2"><path d="M0.0 471.5 L111.5 458.7 L222.9 418.8 L334.4 390.8 L445.8 331.4 L557.3 213.3 L668.7 0.0" fill="none"/></g></g><g><rect transform="translate(-6.422250000000001, -1.275)" x="625.94775" y="61.775" width="98.4745" height="19.549999999999997" fill="#f5f5f5" fill-opacity="0.85" stroke="none"/><g><rect y="63.775" x="625.94775" width="13" height="13" fill="#5fab9e"/><text y="73.525" x="640.94775" font-size="13" font-family="DejaVu Sans, sans-serif" fill="#444444">decode tok/s</text></g></g><path d="M53.26 56.5 v471.5 M53.26 528.0 h668.74" stroke="#999" stroke-width="1.5" fill="none"/></svg>