<svg xmlns="http://www.w3.org/2000/svg" width="760" height="560" viewBox="0 0 760 560"><path fill="#FFFFFF" d="M0 0 h760 v560 h-760 v-560Z"/><text transform="translate(-88.88500000000002, 19)" fill="#444444" font-family="DejaVu Sans, sans-serif" font-weight="bold" font-size="16" x="380.0" y="14.0">Prefill tok/s vs context</text><defs><clipPath id="plot-clip"><rect x="0" y="0" width="661.11" height="471.5"/></clipPath></defs><g><path stroke="#cccccc" stroke-dasharray="None" d="M0 465.92877409067177 h661.11 M0 345.266722742704 h661.11 M0 202.55380657285065 h661.11 M0 27.88731352322504 h661.11" transform="translate(60.89, 56.5)"/><g font-size="12" font-family="DejaVu Sans, sans-serif" fill="#000000" transform="translate(54.89, 56.5)"><text x="0" y="465.92877409067177" transform="translate(-22.89, 3.5)">400</text><text x="0" y="345.266722742704" transform="translate(-22.89, 3.5)">500</text><text x="0" y="202.55380657285065" transform="translate(-22.89, 3.5)">600</text><text x="0" y="27.88731352322504" transform="translate(-22.89, 3.5)">700</text></g></g><g><path stroke="#cccccc" stroke-dasharray="None" d="M0.0 0 v471.5 M110.185 0 v471.5 M220.37 0 v471.5 M330.555 0 v471.5 M440.74 0 v471.5 M550.9250000000001 0 v471.5 M661.11 0 v471.5" transform="translate(60.89, 56.5)"/><g font-size="12" font-family="DejaVu Sans, sans-serif" fill="#000000" transform="translate(60.89, 74.5)"><text x="0.0" y="471.5" transform="translate(-7.29, 0)">1k</text><text x="110.185" y="471.5" transform="translate(-7.29, 0)">2k</text><text x="220.37" y="471.5" transform="translate(-7.29, 0)">4k</text><text x="330.555" y="471.5" transform="translate(-7.29, 0)">8k</text><text x="440.74" y="471.5" transform="translate(-11.105, 0)">16k</text><text x="550.9250000000001" y="471.5" transform="translate(-11.105, 0)">32k</text><text x="661.11" y="471.5" transform="translate(-11.105, 0)">64k</text></g></g><g opacity="0.8" transform="translate(-38.0, -32) rotate(180, 380.0, 280.0) scale(-1, 1) translate(-661.11, 0)"><g fill="white" stroke="#5fab9e" stroke-width="2"><path d="M0.0 419.9 L110.2 465.9 L220.4 471.5 L330.6 437.5 L440.7 370.9 L550.9 240.7 L661.1 0.0" fill="none"/></g></g><g><rect transform="translate(-5.75025, -1.275)" x="635.57975" y="61.775" width="88.17049999999999" height="19.549999999999997" fill="#f5f5f5" fill-opacity="0.85" stroke="none"/><g><rect y="63.775" x="635.57975" width="13" height="13" fill="#5fab9e"/><text y="73.525" x="650.57975" font-size="13" font-family="DejaVu Sans, sans-serif" fill="#444444">prefill tok/s</text></g></g><path d="M60.89 56.5 v471.5 M60.89 528.0 h661.11 M60.89 56.5 h661.11" stroke="#999" stroke-width="1.5" fill="none"/></svg>