<svg xmlns="http://www.w3.org/2000/svg" width="500" height="500" viewBox="0 0 500 500"><path fill="#FFFFFF" d="M0 0 h500 v500 h-500 v-500Z"/><text transform="translate(-96.73500000000001, 19)" fill="#444444" font-family="DejaVu Sans, sans-serif" font-weight="bold" font-size="16" x="250.0" y="12.5">Decode tok/s vs context</text><defs><clipPath id="plot-clip"><rect x="0" y="0" width="434.74" height="414.5"/></clipPath></defs><g><path stroke="#cccccc" stroke-dasharray="None" d="M0 0.0 h434.74 M0 82.9 h434.74 M0 165.8 h434.74 M0 248.7 h434.74 M0 331.6 h434.74 M0 414.5 h434.74" transform="translate(40.26, 53.5)"/><g font-size="12" font-family="DejaVu Sans, sans-serif" fill="#000000" transform="translate(34.26, 53.5)"><text x="0" y="0.0" transform="translate(-15.26, 3.5)">60</text><text x="0" y="82.9" transform="translate(-15.26, 3.5)">48</text><text x="0" y="165.8" transform="translate(-15.26, 3.5)">36</text><text x="0" y="248.7" transform="translate(-15.26, 3.5)">24</text><text x="0" y="331.6" transform="translate(-15.26, 3.5)">12</text><text x="0" y="414.5" transform="translate(-7.63, 3.5)">0</text></g></g><g><path stroke="#cccccc" stroke-dasharray="None" d="M0.0 0 v414.5 M72.45666666666666 0 v414.5 M144.91333333333333 0 v414.5 M217.37 0 v414.5 M289.82666666666665 0 v414.5 M362.28333333333336 0 v414.5 M434.74 0 v414.5" transform="translate(40.26, 53.5)"/><g font-size="12" font-family="DejaVu Sans, sans-serif" fill="#000000" transform="translate(40.26, 71.5)"><text x="0.0" y="414.5" transform="translate(-7.29, 0)">1k</text><text x="72.45666666666666" y="414.5" transform="translate(-7.29, 0)">2k</text><text x="144.91333333333333" y="414.5" transform="translate(-7.29, 0)">4k</text><text x="217.37" y="414.5" transform="translate(-7.29, 0)">8k</text><text x="289.82666666666665" y="414.5" transform="translate(-11.105, 0)">16k</text><text x="362.28333333333336" y="414.5" transform="translate(-11.105, 0)">32k</text><text x="434.74" y="414.5" transform="translate(-11.105, 0)">64k</text></g></g><g opacity="0.8" transform="translate(-25.0, -32) rotate(180, 250.0, 250.0) scale(-1, 1) translate(-434.74, 0)"><g fill="white" stroke="#41b6a6" stroke-width="2"><path d="M0.0 380.6 L72.5 375.1 L144.9 363.4 L217.4 340.6 L289.8 312.9 L362.3 260.4 L434.7 194.8" fill="none"/></g></g><g><rect transform="translate(-6.422250000000001, -1.275)" x="378.94775" y="58.775" width="98.4745" height="19.549999999999997" fill="#f5f5f5" fill-opacity="0.85" stroke="none"/><g><rect y="60.775" x="378.94775" width="13" height="13" fill="#41b6a6"/><text y="70.525" x="393.94775" font-size="13" font-family="DejaVu Sans, sans-serif" fill="#444444">decode tok/s</text></g></g><path d="M40.26 53.5 v414.5 M40.26 468.0 h434.74" stroke="#999" stroke-width="1.5" fill="none"/></svg>