<svg xmlns="http://www.w3.org/2000/svg" width="760" height="440" viewBox="0 0 760 440"><path fill="#FFFFFF" d="M0 0 h760 v440 h-760 v-440Z"/><text transform="translate(-200.89999999999995, 19)" fill="#444444" font-family="DejaVu Sans, sans-serif" font-weight="bold" font-size="16" x="380.0" y="11.0">Prompt tokens: served from cache vs recomputed</text><text transform="translate(-283.7849999999999, 14)" fill="#444444" font-family="DejaVu Sans, sans-serif" font-size="12" x="380.0" y="50.0">3 concurrent chats · 20-min window · 789,351 prompt tokens offered → only 6.2% hit the GPU</text><defs><clipPath id="plot-clip"><rect x="0" y="0" width="634.41" height="328.5"/></clipPath></defs><g><path stroke="#cccccc" stroke-dasharray="None" d="M0 0.0 h634.41 M0 65.7 h634.41 M0 131.4 h634.41 M0 197.1 h634.41 M0 262.8 h634.41 M0 328.5 h634.41" transform="translate(87.59, 79.5)"/><g font-size="12" font-family="DejaVu Sans, sans-serif" fill="#000000" transform="translate(81.59, 79.5)"><text x="0" y="0.0" transform="translate(-49.59, 3.5)">750,000</text><text x="0" y="65.7" transform="translate(-49.59, 3.5)">600,000</text><text x="0" y="131.4" transform="translate(-49.59, 3.5)">450,000</text><text x="0" y="197.1" transform="translate(-49.59, 3.5)">300,000</text><text x="0" y="262.8" transform="translate(-49.59, 3.5)">150,000</text><text x="0" y="328.5" transform="translate(-7.63, 3.5)">0</text></g></g><g><path stroke="#cccccc" stroke-dasharray="None" d="M0.0 0 v328.5 M211.46999999999997 0 v328.5 M422.93999999999994 0 v328.5 M634.41 0 v328.5" transform="translate(87.59, 79.5)"/><g font-size="12" font-family="DejaVu Sans, sans-serif" fill="#000000" transform="translate(87.59, 97.5)"><text x="0.0" y="328.5" transform="translate(-1.905, 0)"> </text><text x="211.46999999999997" y="328.5" transform="translate(-81.885, 0)">Reused from disk KV cache</text><text x="422.93999999999994" y="328.5" transform="translate(-62.09, 0)">Recomputed on GPU</text><text x="634.41" y="328.5" transform="translate(-1.905, 0)"> </text></g></g><g opacity="0.8" transform="translate(-38.0, -32) rotate(180, 380.0, 220.0) scale(-1, 1) translate(-634.41, 0) translate(-90.63, 0)"><path d="M211.5 0.0 h181.3 v324.3 h-181.3 v-324.3Z M422.9 0.0 h181.3 v21.5 h-181.3 v-21.5Z" fill="#2f9d8d"/><g><text x="302.09999999999997" y="308.27549" fill="#000000" font-size="12" font-family="DejaVu Sans, sans-serif" text-anchor="middle" transform="translate(302.09999999999997,308.27549) scale(1,-1) translate(-302.09999999999997,-308.27549)">740,355</text><text x="513.5699999999999" y="37.460248" fill="#323232" font-size="12" font-family="DejaVu Sans, sans-serif" text-anchor="middle" transform="translate(513.5699999999999,37.460248) scale(1,-1) translate(-513.5699999999999,-37.460248)">48,996</text></g></g><path d="M87.59 79.5 v328.5 M87.59 408.0 h634.41" stroke="#999" stroke-width="1.5" fill="none"/></svg>