<svg xmlns="http://www.w3.org/2000/svg" width="820" height="440" viewBox="0 0 820 440"><path fill="#FFFFFF" d="M0 0 h820 v440 h-820 v-440Z"/><text transform="translate(-194.44999999999993, 19)" fill="#444444" font-family="DejaVu Sans, sans-serif" font-weight="bold" font-size="16" x="410.0" y="11.0">Where each interval's prompt tokens came from</text><text transform="translate(-213.555, 14)" fill="#444444" font-family="DejaVu Sans, sans-serif" font-size="12" x="410.0" y="50.0">Per-sample prompt tokens — disk-cache reuse dominates the whole run</text><defs><clipPath id="plot-clip"><rect x="0" y="0" width="688.41" height="285.5"/></clipPath></defs><g><path stroke="#cccccc" stroke-dasharray="None" d="M0 0.0 h688.41 M0 57.1 h688.41 M0 114.2 h688.41 M0 171.29999999999998 h688.41 M0 228.4 h688.41 M0 285.5 h688.41" transform="translate(90.59, 104.5)"/><g font-size="12" font-family="DejaVu Sans, sans-serif" fill="#000000" transform="translate(84.59, 104.5)"><text x="0" y="0.0" transform="translate(-49.59, 3.5)">200,000</text><text x="0" y="57.1" transform="translate(-49.59, 3.5)">160,000</text><text x="0" y="114.2" transform="translate(-49.59, 3.5)">120,000</text><text x="0" y="171.29999999999998" transform="translate(-41.96, 3.5)">80,000</text><text x="0" y="228.4" transform="translate(-41.96, 3.5)">40,000</text><text x="0" y="285.5" transform="translate(-7.63, 3.5)">0</text></g></g><g><path stroke="#cccccc" stroke-dasharray="None" d="M0.0 0 v285.5 M57.36749999999999 0 v285.5 M114.73499999999999 0 v285.5 M172.1025 0 v285.5 M229.46999999999997 0 v285.5 M286.8375 0 v285.5 M344.205 0 v285.5 M401.5725 0 v285.5 M458.93999999999994 0 v285.5 M516.3075 0 v285.5 M573.675 0 v285.5 M631.0424999999999 0 v285.5 M688.41 0 v285.5" transform="translate(90.59, 104.5)"/><g font-size="12" font-family="DejaVu Sans, sans-serif" fill="#000000" transform="translate(90.59, 122.5)"><text x="0.0" y="285.5" transform="translate(-1.905, 0)"> </text><text x="114.73499999999999" y="285.5" transform="translate(-17.28, 0)">00:47</text><text x="229.46999999999997" y="285.5" transform="translate(-17.28, 0)">00:48</text><text x="344.205" y="285.5" transform="translate(-17.28, 0)">00:52</text><text x="458.93999999999994" y="285.5" transform="translate(-17.28, 0)">00:55</text><text x="573.675" y="285.5" transform="translate(-17.28, 0)">01:00</text><text x="688.41" y="285.5" transform="translate(-1.905, 0)"> </text></g></g><g opacity="0.8" transform="translate(-41.0, -50) rotate(180, 410.0, 220.0) scale(-1, 1) translate(-688.41, 0) translate(-20.24735294117647, 0)"><path d="M57.4 0.0 h40.5 v34.3 h-40.5 v-34.3Z M114.7 0.0 h40.5 v241.6 h-40.5 v-241.6Z M172.1 0.0 h40.5 v172.9 h-40.5 v-172.9Z M229.5 0.0 h40.5 v69.1 h-40.5 v-69.1Z M286.8 0.0 h40.5 v35.4 h-40.5 v-35.4Z M344.2 0.0 h40.5 v250.3 h-40.5 v-250.3Z M401.6 0.0 h40.5 v35.9 h-40.5 v-35.9Z M458.9 0.0 h40.5 v71.7 h-40.5 v-71.7Z M516.3 0.0 h40.5 v35.9 h-40.5 v-35.9Z M573.7 0.0 h40.5 v73.2 h-40.5 v-73.2Z M631.0 0.0 h40.5 v36.6 h-40.5 v-36.6Z" fill="#2f9d8d"/><path d="M57.4 34.3 h40.5 v49.5 h-40.5 v-49.5Z M114.7 241.6 h40.5 v3.7 h-40.5 v-3.7Z M172.1 172.9 h40.5 v4.2 h-40.5 v-4.2Z M229.5 69.1 h40.5 v2.1 h-40.5 v-2.1Z M286.8 35.4 h40.5 v0.7 h-40.5 v-0.7Z M344.2 250.3 h40.5 v4.1 h-40.5 v-4.1Z M401.6 35.9 h40.5 v0.7 h-40.5 v-0.7Z M458.9 71.7 h40.5 v1.9 h-40.5 v-1.9Z M516.3 35.9 h40.5 v0.9 h-40.5 v-0.9Z M573.7 73.2 h40.5 v1.5 h-40.5 v-1.5Z M631.0 36.6 h40.5 v0.8 h-40.5 v-0.8Z" fill="#d9594c"/></g><g><rect x="295.85" y="82.5" width="11.0" height="11.0" fill="#2f9d8d"/><text x="312.85" y="91.85" fill="#444444" font-size="11" font-family="DejaVu Sans, sans-serif" text-anchor="start">Reused from disk KV</text><rect x="442.92" y="82.5" width="11.0" height="11.0" fill="#d9594c"/><text x="459.92" y="91.85" fill="#444444" font-size="11" font-family="DejaVu Sans, sans-serif" text-anchor="start">Recomputed on GPU</text></g><path d="M90.59 104.5 v285.5 M90.59 390.0 h688.41" stroke="#999" stroke-width="1.5" fill="none"/><text x="434.79499999999996" y="438" fill="#323232" font-size="14" font-family="DejaVu Sans, sans-serif" text-anchor="middle">time (UTC)</text></svg>