<svg xmlns="http://www.w3.org/2000/svg" width="820" height="440" viewBox="0 0 820 440"><path fill="#FFFFFF" d="M0 0 h820 v440 h-820 v-440Z"/><text transform="translate(-171.0, 19)" fill="#444444" font-family="DejaVu Sans, sans-serif" font-weight="bold" font-size="16" x="410.0" y="11.0">GPU memory pressure during multiplexing</text><text transform="translate(-388.3950000000001, 14)" fill="#444444" font-family="DejaVu Sans, sans-serif" font-size="12" x="410.0" y="50.0">Metal active held ~79–81 GB — a thin ~8 GB margin under the 88.9 GB soft cap; peaks touched 90 GB, forcing 24 prefix evictions</text><defs><clipPath id="plot-clip"><rect x="0" y="0" width="706.74" height="285.5"/></clipPath></defs><g><path stroke="#cccccc" stroke-dasharray="None" d="M0 0.0 h706.74 M0 57.1 h706.74 M0 114.2 h706.74 M0 171.29999999999998 h706.74 M0 228.4 h706.74 M0 285.5 h706.74" transform="translate(72.26, 104.5)"/><g font-size="12" font-family="DejaVu Sans, sans-serif" fill="#000000" transform="translate(66.26, 104.5)"><text x="0" y="0.0" transform="translate(-15.26, 3.5)">90</text><text x="0" y="57.1" transform="translate(-15.26, 3.5)">87</text><text x="0" y="114.2" transform="translate(-15.26, 3.5)">84</text><text x="0" y="171.29999999999998" transform="translate(-15.26, 3.5)">81</text><text x="0" y="228.4" transform="translate(-15.26, 3.5)">78</text><text x="0" y="285.5" transform="translate(-15.26, 3.5)">75</text></g></g><g><path stroke="#cccccc" stroke-dasharray="None" d="M0.0 0 v285.5 M58.894999999999996 0 v285.5 M117.78999999999999 0 v285.5 M176.685 0 v285.5 M235.57999999999998 0 v285.5 M294.475 0 v285.5 M353.37 0 v285.5 M412.26500000000004 0 v285.5 M471.15999999999997 0 v285.5 M530.0550000000001 0 v285.5 M588.95 0 v285.5 M647.845 0 v285.5 M706.74 0 v285.5" transform="translate(72.26, 104.5)"/><g font-size="12" font-family="DejaVu Sans, sans-serif" fill="#000000" transform="translate(72.26, 122.5)"><text x="0.0" y="285.5" transform="translate(-6.9399999999999995, 0)">s1</text><text x="117.78999999999999" y="285.5" transform="translate(-6.9399999999999995, 0)">s3</text><text x="235.57999999999998" y="285.5" transform="translate(-6.9399999999999995, 0)">s5</text><text x="353.37" y="285.5" transform="translate(-6.9399999999999995, 0)">s7</text><text x="471.15999999999997" y="285.5" transform="translate(-6.9399999999999995, 0)">s9</text><text x="588.95" y="285.5" transform="translate(-10.754999999999999, 0)">s11</text><text x="706.74" y="285.5" transform="translate(-10.754999999999999, 0)">s13</text></g></g><g opacity="0.8" transform="translate(-41.0, -50) rotate(180, 410.0, 220.0) scale(-1, 1) translate(-706.74, 0)"><g fill="white" stroke="#2f9d8d" stroke-width="2"><path d="M0.0 87.6 L58.9 79.9 L117.8 62.8 L176.7 91.4 L235.6 95.2 L294.5 95.2 L353.4 83.7 L412.3 81.8 L471.2 108.5 L530.1 95.2 L589.0 87.6 L647.8 81.8 L706.7 89.5" fill="none"/><circle cx="0.0" cy="87.6" r="3"/><circle cx="58.9" cy="79.9" r="3"/><circle cx="117.8" cy="62.8" r="3"/><circle cx="176.7" cy="91.4" r="3"/><circle cx="235.6" cy="95.2" r="3"/><circle cx="294.5" cy="95.2" r="3"/><circle cx="353.4" cy="83.7" r="3"/><circle cx="412.3" cy="81.8" r="3"/><circle cx="471.2" cy="108.5" r="3"/><circle cx="530.1" cy="95.2" r="3"/><circle cx="589.0" cy="87.6" r="3"/><circle cx="647.8" cy="81.8" r="3"/><circle cx="706.7" cy="89.5" r="3"/></g><g fill="white" stroke="#d9594c" stroke-width="2" stroke-dasharray="6,4"><path d="M0.0 264.6 L58.9 264.6 L117.8 264.6 L176.7 264.6 L235.6 264.6 L294.5 264.6 L353.4 264.6 L412.3 264.6 L471.2 264.6 L530.1 264.6 L589.0 264.6 L647.8 264.6 L706.7 264.6" fill="none"/><circle cx="0.0" cy="264.6" r="3"/><circle cx="58.9" cy="264.6" r="3"/><circle cx="117.8" cy="264.6" r="3"/><circle cx="176.7" cy="264.6" r="3"/><circle cx="235.6" cy="264.6" r="3"/><circle cx="294.5" cy="264.6" r="3"/><circle cx="353.4" cy="264.6" r="3"/><circle cx="412.3" cy="264.6" r="3"/><circle cx="471.2" cy="264.6" r="3"/><circle cx="530.1" cy="264.6" r="3"/><circle cx="589.0" cy="264.6" r="3"/><circle cx="647.8" cy="264.6" r="3"/><circle cx="706.7" cy="264.6" r="3"/></g><g fill="white" stroke="#e8b04b" stroke-width="2" stroke-dasharray="2,4"><path d="M0.0 285.5 L58.9 285.5 L117.8 285.5 L176.7 285.5 L235.6 285.5 L294.5 285.5 L353.4 285.5 L412.3 285.5 L471.2 285.5 L530.1 285.5 L589.0 285.5 L647.8 285.5 L706.7 285.5" fill="none"/><circle cx="0.0" cy="285.5" r="3"/><circle cx="58.9" cy="285.5" r="3"/><circle cx="117.8" cy="285.5" r="3"/><circle cx="176.7" cy="285.5" r="3"/><circle cx="235.6" cy="285.5" r="3"/><circle cx="294.5" cy="285.5" r="3"/><circle cx="353.4" cy="285.5" r="3"/><circle cx="412.3" cy="285.5" r="3"/><circle cx="471.2" cy="285.5" r="3"/><circle cx="530.1" cy="285.5" r="3"/><circle cx="589.0" cy="285.5" r="3"/><circle cx="647.8" cy="285.5" r="3"/><circle cx="706.7" cy="285.5" r="3"/></g></g><g><rect x="263.74" y="82.5" width="11.0" height="11.0" fill="#2f9d8d"/><text x="280.74" y="91.85" fill="#444444" font-size="11" font-family="DejaVu Sans, sans-serif" text-anchor="start">Metal active</text><rect x="364.05" y="82.5" width="11.0" height="11.0" fill="#d9594c"/><text x="381.05" y="91.85" fill="#444444" font-size="11" font-family="DejaVu Sans, sans-serif" text-anchor="start">Soft cap (88.9 GB)</text><rect x="498.36" y="82.5" width="11.0" height="11.0" fill="#e8b04b"/><text x="515.36" y="91.85" fill="#444444" font-size="11" font-family="DejaVu Sans, sans-serif" text-anchor="start">Peak (90 GB)</text></g><path d="M72.26 104.5 v285.5 M72.26 390.0 h706.74" stroke="#999" stroke-width="1.5" fill="none"/><text x="425.63" y="438" fill="#323232" font-size="14" font-family="DejaVu Sans, sans-serif" text-anchor="middle">scheduler sample</text><text x="37.00000000000001" y="247.25" fill="#323232" font-size="14" font-family="DejaVu Sans, sans-serif" text-anchor="middle" transform="rotate(-90, 37.00000000000001, 247.25)">GB (unified memory)</text></svg>