<svg xmlns="http://www.w3.org/2000/svg" width="820" height="440" viewBox="0 0 820 440"><path fill="#FFFFFF" d="M0 0 h820 v440 h-820 v-440Z"/><text transform="translate(-179.15499999999997, 19)" fill="#444444" font-family="DejaVu Sans, sans-serif" font-weight="bold" font-size="16" x="410.0" y="11.0">KV cache growth on disk (baseline removed)</text><text transform="translate(-330.01000000000005, 14)" fill="#444444" font-family="DejaVu Sans, sans-serif" font-size="12" x="410.0" y="50.0">Cumulative KV checkpoints written to disk during the test — +81 over the window (starting disk state ignored)</text><defs><clipPath id="plot-clip"><rect x="0" y="0" width="706.74" height="310.5"/></clipPath></defs><g><path stroke="#cccccc" stroke-dasharray="None" d="M0 0.0 h706.74 M0 62.1 h706.74 M0 124.2 h706.74 M0 186.29999999999998 h706.74 M0 248.4 h706.74 M0 310.5 h706.74" transform="translate(72.26, 79.5)"/><g font-size="12" font-family="DejaVu Sans, sans-serif" fill="#000000" transform="translate(66.26, 79.5)"><text x="0" y="0.0" transform="translate(-15.26, 3.5)">85</text><text x="0" y="62.1" transform="translate(-15.26, 3.5)">68</text><text x="0" y="124.2" transform="translate(-15.26, 3.5)">51</text><text x="0" y="186.29999999999998" transform="translate(-15.26, 3.5)">34</text><text x="0" y="248.4" transform="translate(-15.26, 3.5)">17</text><text x="0" y="310.5" transform="translate(-7.63, 3.5)">0</text></g></g><g><path stroke="#cccccc" stroke-dasharray="None" d="M0.0 0 v310.5 M54.36461538461539 0 v310.5 M108.72923076923078 0 v310.5 M163.09384615384616 0 v310.5 M217.45846153846156 0 v310.5 M271.82307692307694 0 v310.5 M326.1876923076923 0 v310.5 M380.5523076923077 0 v310.5 M434.9169230769231 0 v310.5 M489.28153846153845 0 v310.5 M543.6461538461539 0 v310.5 M598.0107692307693 0 v310.5 M652.3753846153846 0 v310.5 M706.74 0 v310.5" transform="translate(72.26, 79.5)"/><g font-size="12" font-family="DejaVu Sans, sans-serif" fill="#000000" transform="translate(72.26, 97.5)"><text x="0.0" y="310.5" transform="translate(-17.28, 0)">00:43</text><text x="108.72923076923078" y="310.5" transform="translate(-17.28, 0)">00:44</text><text x="217.45846153846156" y="310.5" transform="translate(-17.28, 0)">00:47</text><text x="326.1876923076923" y="310.5" transform="translate(-17.28, 0)">00:48</text><text x="434.9169230769231" y="310.5" transform="translate(-17.28, 0)">00:52</text><text x="543.6461538461539" y="310.5" transform="translate(-17.28, 0)">00:55</text><text x="652.3753846153846" y="310.5" transform="translate(-17.28, 0)">01:00</text><text x="706.74" y="310.5" transform="translate(-17.28, 0)">01:00</text></g></g><g><path d="M72.26 390.0 L126.6246153846154 379.04117647058825 L180.9892307692308 368.08235294117645 L235.35384615384618 360.77647058823527 L289.71846153846155 302.32941176470587 L344.08307692307693 269.4529411764706 L398.4476923076923 236.57647058823528 L452.8123076923077 229.2705882352941 L507.1769230769231 174.47647058823532 L561.5415384615385 159.86470588235292 L615.9061538461539 141.6 L670.2707692307692 126.98823529411766 L724.6353846153846 112.37647058823529 L779.0 94.11176470588236 L779.0 390.0 L724.6353846153846 390.0 L670.2707692307692 390.0 L615.9061538461539 390.0 L561.5415384615385 390.0 L507.1769230769231 390.0 L452.8123076923077 390.0 L398.4476923076923 390.0 L344.08307692307693 390.0 L289.71846153846155 390.0 L235.35384615384618 390.0 L180.9892307692308 390.0 L126.6246153846154 390.0 L72.26 390.0 z" fill="#7a9a00" fill-opacity="0.35" stroke="#7a9a00" stroke-width="1.5"/></g><g><rect transform="translate(-11.905499999999998, -1.275)" x="604.3545" y="84.775" width="182.55099999999996" height="19.549999999999997" fill="#f5f5f5" fill-opacity="0.85" stroke="none"/><g><rect y="86.775" x="604.3545" width="13" height="13" fill="#7a9a00"/><text y="96.525" x="619.3545" font-size="13" font-family="DejaVu Sans, sans-serif" fill="#444444">KV checkpoints written (Δ)</text></g></g><path d="M72.26 79.5 v310.5 M72.26 390.0 h706.74" stroke="#999" stroke-width="1.5" fill="none"/><text x="425.63" y="438" fill="#323232" font-size="14" font-family="DejaVu Sans, sans-serif" text-anchor="middle">time (UTC)</text><text x="37.00000000000001" y="234.75" fill="#323232" font-size="14" font-family="DejaVu Sans, sans-serif" text-anchor="middle" transform="rotate(-90, 37.00000000000001, 234.75)">checkpoints (Δ from start)</text></svg>