<svg xmlns="http://www.w3.org/2000/svg" width="820" height="440" viewBox="0 0 820 440"><path fill="#FFFFFF" d="M0 0 h820 v440 h-820 v-440Z"/><text transform="translate(-147.105, 19)" fill="#444444" font-family="DejaVu Sans, sans-serif" font-weight="bold" font-size="16" x="410.0" y="11.0">Sustained throughput across the run</text><text transform="translate(-287.8750000000001, 14)" fill="#444444" font-family="DejaVu Sans, sans-serif" font-size="12" x="410.0" y="50.0">Prompt-token throughput served to the 3 chats (offered tokens ÷ interval) — reuse keeps it high</text><defs><clipPath id="plot-clip"><rect x="0" y="0" width="687.6700000000001" height="310.5"/></clipPath></defs><g><path stroke="#cccccc" stroke-dasharray="None" d="M0 0.0 h687.6700000000001 M0 62.1 h687.6700000000001 M0 124.2 h687.6700000000001 M0 186.29999999999998 h687.6700000000001 M0 248.4 h687.6700000000001 M0 310.5 h687.6700000000001" transform="translate(91.33, 79.5)"/><g font-size="12" font-family="DejaVu Sans, sans-serif" fill="#000000" transform="translate(85.33, 79.5)"><text x="0" y="0.0" transform="translate(-34.33, 3.5)">6,000</text><text x="0" y="62.1" transform="translate(-34.33, 3.5)">4,800</text><text x="0" y="124.2" transform="translate(-34.33, 3.5)">3,600</text><text x="0" y="186.29999999999998" transform="translate(-34.33, 3.5)">2,400</text><text x="0" y="248.4" transform="translate(-34.33, 3.5)">1,200</text><text x="0" y="310.5" transform="translate(-7.63, 3.5)">0</text></g></g><g><path stroke="#cccccc" stroke-dasharray="None" d="M0.0 0 v310.5 M62.51545454545455 0 v310.5 M125.0309090909091 0 v310.5 M187.54636363636365 0 v310.5 M250.0618181818182 0 v310.5 M312.57727272727277 0 v310.5 M375.0927272727273 0 v310.5 M437.60818181818183 0 v310.5 M500.1236363636364 0 v310.5 M562.639090909091 0 v310.5 M625.1545454545455 0 v310.5 M687.6700000000001 0 v310.5" transform="translate(91.33, 79.5)"/><g font-size="12" font-family="DejaVu Sans, sans-serif" fill="#000000" transform="translate(91.33, 97.5)"><text x="0.0" y="310.5" transform="translate(-17.28, 0)">00:43</text><text x="62.51545454545455" y="310.5" transform="translate(-17.28, 0)">00:47</text><text x="125.0309090909091" y="310.5" transform="translate(-17.28, 0)">00:47</text><text x="187.54636363636365" y="310.5" transform="translate(-17.28, 0)">00:48</text><text x="250.0618181818182" y="310.5" transform="translate(-17.28, 0)">00:48</text><text x="312.57727272727277" y="310.5" transform="translate(-17.28, 0)">00:51</text><text x="375.0927272727273" y="310.5" transform="translate(-17.28, 0)">00:52</text><text x="437.60818181818183" y="310.5" transform="translate(-17.28, 0)">00:52</text><text x="500.1236363636364" y="310.5" transform="translate(-17.28, 0)">00:55</text><text x="562.639090909091" y="310.5" transform="translate(-17.28, 0)">00:56</text><text x="625.1545454545455" y="310.5" transform="translate(-17.28, 0)">01:00</text><text x="687.6700000000001" y="310.5" transform="translate(-17.28, 0)">01:00</text></g></g><g opacity="0.8" transform="translate(-41.0, -50) rotate(180, 410.0, 220.0) scale(-1, 1) translate(-687.6700000000001, 0)"><g fill="white" stroke="#2f9d8d" stroke-width="2"><path d="M0.0 59.3 L62.5 6.0 L125.0 296.4 L187.5 213.9 L250.1 86.1 L312.6 7.2 L375.1 307.4 L437.6 44.2 L500.1 14.8 L562.6 44.5 L625.2 11.3 L687.7 45.2" fill="none"/><circle cx="0.0" cy="59.3" r="3"/><circle cx="62.5" cy="6.0" r="3"/><circle cx="125.0" cy="296.4" r="3"/><circle cx="187.5" cy="213.9" r="3"/><circle cx="250.1" cy="86.1" r="3"/><circle cx="312.6" cy="7.2" r="3"/><circle cx="375.1" cy="307.4" r="3"/><circle cx="437.6" cy="44.2" r="3"/><circle cx="500.1" cy="14.8" r="3"/><circle cx="562.6" cy="44.5" r="3"/><circle cx="625.2" cy="11.3" r="3"/><circle cx="687.7" cy="45.2" r="3"/></g></g><g><rect transform="translate(-11.87325, -1.275)" x="604.8167500000002" y="84.775" width="182.0565" height="19.549999999999997" fill="#f5f5f5" fill-opacity="0.85" stroke="none"/><g><rect y="86.775" x="604.8167500000002" width="13" height="13" fill="#2f9d8d"/><text y="96.525" x="619.8167500000002" font-size="13" font-family="DejaVu Sans, sans-serif" fill="#444444">Prompt tokens/sec served</text></g></g><path d="M91.33 79.5 v310.5 M91.33 390.0 h687.6700000000001" stroke="#999" stroke-width="1.5" fill="none"/><text x="435.165" y="438" fill="#323232" font-size="14" font-family="DejaVu Sans, sans-serif" text-anchor="middle">time (UTC)</text><text x="37.0" y="234.75" fill="#323232" font-size="14" font-family="DejaVu Sans, sans-serif" text-anchor="middle" transform="rotate(-90, 37.0, 234.75)">tokens / sec</text></svg>