<svg xmlns="http://www.w3.org/2000/svg" width="820" height="440" viewBox="0 0 820 440"><path fill="#FFFFFF" d="M0 0 h820 v440 h-820 v-440Z"/><text transform="translate(-188.4799999999999, 19)" fill="#444444" font-family="DejaVu Sans, sans-serif" font-weight="bold" font-size="16" x="410.0" y="11.0">KV cache footprint on SSD (growth during test)</text><text transform="translate(-319.0850000000001, 14)" fill="#444444" font-family="DejaVu Sans, sans-serif" font-size="12" x="410.0" y="50.0">+14.5 GB of KV checkpoints written to the SSD across the 20-min run (starting 253 GB baseline removed)</text><defs><clipPath id="plot-clip"><rect x="0" y="0" width="706.74" height="280.3132336401312"/></clipPath></defs><g><path stroke="#cccccc" stroke-dasharray="None" d="M0 0.0 h706.74 M0 56.062646728026245 h706.74 M0 112.12529345605249 h706.74 M0 168.1879401840787 h706.74 M0 224.25058691210498 h706.74 M0 280.3132336401312 h706.74" transform="translate(72.26, 79.5)"/><g font-size="12" font-family="DejaVu Sans, sans-serif" fill="#000000" transform="translate(66.26, 79.5)"><text x="0" y="0.0" transform="translate(-15.26, 3.5)">15</text><text x="0" y="56.062646728026245" transform="translate(-15.26, 3.5)">12</text><text x="0" y="112.12529345605249" transform="translate(-7.63, 3.5)">9</text><text x="0" y="168.1879401840787" transform="translate(-7.63, 3.5)">6</text><text x="0" y="224.25058691210498" transform="translate(-7.63, 3.5)">3</text><text x="0" y="280.3132336401312" transform="translate(-7.63, 3.5)">0</text></g></g><g><path stroke="#cccccc" stroke-dasharray="None" d="M0.0 0 v280.3132336401312 M68.95024390243903 0 v280.3132336401312 M137.90048780487805 0 v280.3132336401312 M206.85073170731707 0 v280.3132336401312 M275.8009756097561 0 v280.3132336401312 M344.7512195121951 0 v280.3132336401312 M413.70146341463413 0 v280.3132336401312 M482.6517073170732 0 v280.3132336401312 M551.6019512195122 0 v280.3132336401312 M620.5521951219513 0 v280.3132336401312 M689.5024390243902 0 v280.3132336401312 M706.74 0 v280.3132336401312" transform="translate(72.26, 79.5)"/><g font-size="12" font-family="DejaVu Sans, sans-serif" fill="#000000" transform="translate(72.26, 97.5)"><text x="0.0" y="280.3132336401312" transform="translate(-6.912000000000001, 0) rotate(60.8631995279858, 0.0, 280.3132336401312)">00:43</text><text x="68.95024390243903" y="280.3132336401312" transform="translate(-6.912000000000001, 0) rotate(60.8631995279858, 68.95024390243903, 280.3132336401312)">00:45</text><text x="137.90048780487805" y="280.3132336401312" transform="translate(-6.912000000000001, 0) rotate(60.8631995279858, 137.90048780487805, 280.3132336401312)">00:47</text><text x="206.85073170731707" y="280.3132336401312" transform="translate(-6.912000000000001, 0) rotate(60.8631995279858, 206.85073170731707, 280.3132336401312)">00:49</text><text x="275.8009756097561" y="280.3132336401312" transform="translate(-6.912000000000001, 0) rotate(60.8631995279858, 275.8009756097561, 280.3132336401312)">00:51</text><text x="344.7512195121951" y="280.3132336401312" transform="translate(-6.912000000000001, 0) rotate(60.8631995279858, 344.7512195121951, 280.3132336401312)">00:53</text><text x="413.70146341463413" y="280.3132336401312" transform="translate(-6.912000000000001, 0) rotate(60.8631995279858, 413.70146341463413, 280.3132336401312)">00:55</text><text x="482.6517073170732" y="280.3132336401312" transform="translate(-6.912000000000001, 0) rotate(60.8631995279858, 482.6517073170732, 280.3132336401312)">00:57</text><text x="551.6019512195122" y="280.3132336401312" transform="translate(-6.912000000000001, 0) rotate(60.8631995279858, 551.6019512195122, 280.3132336401312)">00:59</text><text x="620.5521951219513" y="280.3132336401312" transform="translate(-6.912000000000001, 0) rotate(60.8631995279858, 620.5521951219513, 280.3132336401312)">01:01</text><text x="706.74" y="280.3132336401312" transform="translate(-6.912000000000001, 0) rotate(60.8631995279858, 706.74, 280.3132336401312)">01:03</text></g></g><g><path d="M72.26 359.8132336401312 L89.49756097560976 346.54507391449835 L106.73512195121953 346.54507391449835 L123.97268292682926 326.73627207059576 L141.21024390243903 326.73627207059576 L158.44780487804877 326.73627207059576 L175.68536585365854 326.73627207059576 L192.9229268292683 326.73627207059576 L210.16048780487807 320.9431319086997 L227.39804878048784 273.2898821898774 L244.63560975609755 246.3798117604248 L261.8731707317073 219.2828658418788 L279.1107317073171 219.2828658418788 L296.34829268292685 219.2828658418788 L313.5858536585366 219.2828658418788 L330.82341463414633 219.2828658418788 L348.0609756097561 219.2828658418788 L365.2985365853658 213.3028501908893 L382.53609756097563 168.63960829756172 L399.7736585365854 156.86645248467622 L417.0112195121951 156.86645248467622 L434.2487804878049 156.86645248467622 L451.48634146341465 156.86645248467622 L468.7239024390244 156.86645248467622 L485.9614634146341 156.86645248467622 L503.1990243902439 141.72953786810913 L520.4365853658537 129.7695065661302 L537.6741463414635 129.7695065661302 L554.9117073170733 129.7695065661302 L572.1492682926829 129.7695065661302 L589.3868292682927 129.7695065661302 L606.6243902439024 129.7695065661302 L623.8619512195122 129.7695065661302 L641.099512195122 129.7695065661302 L658.3370731707316 117.62259977505781 L675.5746341463414 102.85943613667763 L692.8121951219513 102.85943613667763 L710.049756097561 102.85943613667763 L727.2873170731708 102.85943613667763 L744.5248780487805 102.85943613667763 L761.7624390243902 102.85943613667763 L779.0 87.90939700920393 L779.0 359.8132336401312 L761.7624390243902 359.8132336401312 L744.5248780487805 359.8132336401312 L727.2873170731708 359.8132336401312 L710.049756097561 359.8132336401312 L692.8121951219513 359.8132336401312 L675.5746341463414 359.8132336401312 L658.3370731707316 359.8132336401312 L641.099512195122 359.8132336401312 L623.8619512195122 359.8132336401312 L606.6243902439024 359.8132336401312 L589.3868292682927 359.8132336401312 L572.1492682926829 359.8132336401312 L554.9117073170733 359.8132336401312 L537.6741463414635 359.8132336401312 L520.4365853658537 359.8132336401312 L503.1990243902439 359.8132336401312 L485.9614634146341 359.8132336401312 L468.7239024390244 359.8132336401312 L451.48634146341465 359.8132336401312 L434.2487804878049 359.8132336401312 L417.0112195121951 359.8132336401312 L399.7736585365854 359.8132336401312 L382.53609756097563 359.8132336401312 L365.2985365853658 359.8132336401312 L348.0609756097561 359.8132336401312 L330.82341463414633 359.8132336401312 L313.5858536585366 359.8132336401312 L296.34829268292685 359.8132336401312 L279.1107317073171 359.8132336401312 L261.8731707317073 359.8132336401312 L244.63560975609755 359.8132336401312 L227.39804878048784 359.8132336401312 L210.16048780487807 359.8132336401312 L192.9229268292683 359.8132336401312 L175.68536585365854 359.8132336401312 L158.44780487804877 359.8132336401312 L141.21024390243903 359.8132336401312 L123.97268292682926 359.8132336401312 L106.73512195121953 359.8132336401312 L89.49756097560976 359.8132336401312 L72.26 359.8132336401312 z" fill="#2f9d8d" fill-opacity="0.35" stroke="#2f9d8d" stroke-width="1.5"/></g><g><rect transform="translate(-13.902750000000003, -1.275)" x="575.7272499999999" y="84.775" width="213.17550000000003" height="19.549999999999997" fill="#f5f5f5" fill-opacity="0.85" stroke="none"/><g><rect y="86.775" x="575.7272499999999" width="13" height="13" fill="#2f9d8d"/><text y="96.525" x="590.7272499999999" font-size="13" font-family="DejaVu Sans, sans-serif" fill="#444444">KV cache written to SSD (Δ GB)</text></g></g><path d="M72.26 79.5 v280.3132336401312 M72.26 359.8132336401312 h706.74" stroke="#999" stroke-width="1.5" fill="none"/><text x="425.63" y="438" fill="#323232" font-size="14" font-family="DejaVu Sans, sans-serif" text-anchor="middle">time (UTC)</text><text x="37.00000000000001" y="219.6566168200656" fill="#323232" font-size="14" font-family="DejaVu Sans, sans-serif" text-anchor="middle" transform="rotate(-90, 37.00000000000001, 219.6566168200656)">GB added to SSD</text></svg>